<?xml version="1.0" encoding="UTF-8"?>
<svg width="1200pt" height="1200pt" version="1.1" viewBox="0 0 1200 1200" xmlns="http://www.w3.org/2000/svg">
 <path d="m1021.3 719.46c60.676-99.73 78.168-221.59 48-334.35-50.195-187.57-220.84-318.58-415.01-318.58h-27.676c-233.02 0-422.61 189.58-422.61 422.61v56.062l-78.582 120.77c-9.168 14.082-11.773 31.445-7.1445 47.605 4.6328 16.164 16.031 29.492 31.273 36.582l56.438 26.23 22.352 127.27c11.363 64.668 67.273 111.62 132.96 111.62h103.45c13.555 0 25.387 9.6367 28.145 22.895l16.707 80.363c1.8008 8.6992 9.4688 14.926 18.355 14.926h398.44c5.6445 0 10.988-2.5508 14.551-6.918 3.5625-4.3672 4.9688-10.125 3.8047-15.637l-25.5-122.74c-10.086-48.562-1.4453-98.625 24.336-140.98zm-597.54-154.26c-17.867 13.914-40.93 21.562-64.949 21.562-24.039 0-47.102-7.668-64.969-21.562-8.1758-6.3555-9.6367-18.148-3.2812-26.305 6.375-8.1758 18.148-9.6367 26.305-3.2812 22.633 17.605 61.219 17.625 83.852 0 8.1562-6.3555 19.93-4.9141 26.305 3.2812 6.375 8.1562 4.9102 19.949-3.2617 26.305zm373.05-174.17-122.12 122.12c-17.551 17.551-45.992 17.551-63.562 0l-122.12-122.12c-38.324-38.324-36.094-101.89 6.75-137.27 37.332-30.844 92.961-25.293 127.2 8.9453l19.949 19.949 19.949-19.949c34.238-34.238 89.852-39.789 127.2-8.9453 42.828 35.383 45.078 98.945 6.75 137.27z" fill="#12b0fb"/>
</svg>
